# xmcd CD database file
#
# Track frame offsets:
#	150
#	12137
#	30360
#	46417
#	63993
#	79802
#	103236
#	122726
#
# Disc length: 2278 seconds
#
# Revision: 2
# Processed by: cddbd v1.4b41PL1 Copyright (c) Steve Scherf et al.
# Submitted via: Feurio! 1.50.2ß - http://www.feurio.com
#
DISCID=5d08e408
DTITLE=Johnny Rivers - Last Boogie In Paris
DYEAR=1900
DGENRE=
TTITLE0=Sea Cruise
TTITLE1=Over the line
TTITLE2=Barefootin'
TTITLE3=Summer Rain
TTITLE4=Long Tall Sally
TTITLE5=Walkin' Blues
TTITLE6=Take Me In Your Arms
TTITLE7=John Lee Hooker
EXTD=
EXTT0=
EXTT1=
EXTT2=
EXTT3=
EXTT4=
EXTT5=
EXTT6=
EXTT7=
PLAYORDER=
